<svg xmlns="http://www.w3.org/2000/svg" xmlns:xlink="http://www.w3.org/1999/xlink" width="600" zoomAndPan="magnify" viewBox="0 0 450 112.499997" height="150" preserveAspectRatio="xMidYMid meet" version="1.0"><defs><filter x="0%" y="0%" width="100%" height="100%" id="c6f9fa7a4a"><feColorMatrix values="0 0 0 0 1 0 0 0 0 1 0 0 0 0 1 0 0 0 1 0" color-interpolation-filters="sRGB"/></filter><g/><mask id="065feda85e"><g filter="url(#c6f9fa7a4a)"><rect x="-45" width="540" fill="#000000" y="-11.25" height="134.999996" fill-opacity="0.97"/></g></mask><clipPath id="fabcb131cd"><path d="M 0.675781 0 L 363.863281 0 L 363.863281 103.699219 L 0.675781 103.699219 Z M 0.675781 0 " clip-rule="nonzero"/></clipPath><clipPath id="0d469ca746"><path d="M 279 14 L 363.863281 14 L 363.863281 89 L 279 89 Z M 279 14 " clip-rule="nonzero"/></clipPath><clipPath id="66d1a2165f"><rect x="0" width="364" y="0" height="104"/></clipPath><clipPath id="32c251be5f"><rect x="0" width="364" y="0" height="104"/></clipPath><mask id="2314f0eb46"><g filter="url(#c6f9fa7a4a)"><rect x="-45" width="540" fill="#000000" y="-11.25" height="134.999996" fill-opacity="0.8"/></g></mask><clipPath id="8fec21efe7"><path d="M 0.640625 0.691406 L 55.835938 0.691406 L 55.835938 15.742188 L 0.640625 15.742188 Z M 0.640625 0.691406 " clip-rule="nonzero"/></clipPath><clipPath id="4b87c16c1f"><rect x="0" width="56" y="0" height="16"/></clipPath><clipPath id="13e55f64dc"><rect x="0" width="56" y="0" height="16"/></clipPath></defs><g mask="url(#065feda85e)"><g transform="matrix(1, 0, 0, 1, 45, 0)"><g clip-path="url(#32c251be5f)"><g clip-path="url(#fabcb131cd)"><g><g clip-path="url(#66d1a2165f)"><g fill="#b08968" fill-opacity="0.4"><g transform="translate(8.870995, 81.286128)"><g><path d="M 49.140625 2.90625 C 46.816406 2.90625 45.03125 2.21875 43.78125 0.84375 C 42.53125 -0.53125 41.90625 -2.285156 41.90625 -4.421875 C 41.90625 -5.421875 42.046875 -6.53125 42.328125 -7.75 C 42.609375 -8.96875 42.9375 -10.113281 43.3125 -11.1875 C 44.125 -13.75 44.53125 -15.625 44.53125 -16.8125 C 44.53125 -18.695312 43.8125 -19.640625 42.375 -19.640625 C 41 -19.640625 39.398438 -18.632812 37.578125 -16.625 C 35.765625 -14.625 33.320312 -11.335938 30.25 -6.765625 C 29.5 -5.640625 28.375 -3.726562 26.875 -1.03125 L 25.078125 2.15625 C 23.953125 2.15625 22.734375 1.9375 21.421875 1.5 C 20.109375 1.0625 19.453125 0.46875 19.453125 -0.28125 C 19.453125 -0.90625 20.109375 -2.910156 21.421875 -6.296875 C 22.671875 -9.554688 23.6875 -12.40625 24.46875 -14.84375 C 25.257812 -17.289062 25.65625 -19.328125 25.65625 -20.953125 C 25.65625 -22.828125 24.992188 -23.765625 23.671875 -23.765625 C 21.984375 -23.765625 19.789062 -22.429688 17.09375 -19.765625 C 14.40625 -17.109375 11.742188 -13.726562 9.109375 -9.625 C 6.484375 -5.519531 4.445312 -1.46875 3 2.53125 C 1.875 2.53125 0.546875 2.21875 -0.984375 1.59375 C -2.515625 0.96875 -3.28125 0.4375 -3.28125 0 L 2.71875 -24.046875 C 2.90625 -24.734375 3.578125 -25.34375 4.734375 -25.875 C 5.898438 -26.414062 6.953125 -26.6875 7.890625 -26.6875 C 8.828125 -26.6875 9.59375 -26.398438 10.1875 -25.828125 C 10.789062 -25.265625 11.09375 -24.515625 11.09375 -23.578125 C 11.09375 -22.578125 10.648438 -20.320312 9.765625 -16.8125 C 12.773438 -20.945312 15.875 -24.375 19.0625 -27.09375 C 22.257812 -29.820312 25.269531 -31.1875 28.09375 -31.1875 C 30.21875 -31.1875 31.734375 -30.4375 32.640625 -28.9375 C 33.554688 -27.4375 34.015625 -25.554688 34.015625 -23.296875 C 34.015625 -22.109375 33.890625 -21 33.640625 -19.96875 C 33.390625 -18.9375 32.976562 -17.539062 32.40625 -15.78125 C 36.789062 -22.238281 41.332031 -25.46875 46.03125 -25.46875 C 48.289062 -25.46875 49.9375 -24.789062 50.96875 -23.4375 C 52 -22.09375 52.515625 -20.421875 52.515625 -18.421875 C 52.515625 -16.410156 51.890625 -13.585938 50.640625 -9.953125 C 50.578125 -9.703125 50.34375 -8.890625 49.9375 -7.515625 C 49.53125 -6.140625 49.328125 -5.015625 49.328125 -4.140625 C 49.328125 -2.441406 50.109375 -1.59375 51.671875 -1.59375 C 53.929688 -1.59375 56.140625 -3.03125 58.296875 -5.90625 C 60.460938 -8.789062 62.484375 -12.238281 64.359375 -16.25 L 65.953125 -14.28125 C 64.140625 -9.582031 61.804688 -5.539062 58.953125 -2.15625 C 56.109375 1.21875 52.835938 2.90625 49.140625 2.90625 Z M 49.140625 2.90625 "/></g></g></g><g fill="#b08968" fill-opacity="0.4"><g transform="translate(70.882968, 81.286128)"><g><path d="M 6.203125 3 C 3.628906 3 1.765625 2.15625 0.609375 0.46875 C -0.546875 -1.21875 -1.125 -3.316406 -1.125 -5.828125 C -1.125 -8.453125 -0.578125 -11.175781 0.515625 -14 C 1.609375 -16.820312 3.03125 -19.171875 4.78125 -21.046875 C 6.539062 -22.921875 8.328125 -23.859375 10.140625 -23.859375 C 10.898438 -23.859375 11.875 -23.609375 13.0625 -23.109375 C 13.4375 -25.992188 14.453125 -28.375 16.109375 -30.25 C 17.773438 -32.132812 20.109375 -33.078125 23.109375 -33.078125 C 25.617188 -33.078125 27.46875 -32.367188 28.65625 -30.953125 C 29.84375 -29.546875 30.4375 -27.71875 30.4375 -25.46875 C 30.4375 -23.269531 29.859375 -20.757812 28.703125 -17.9375 C 27.546875 -15.125 26.054688 -12.304688 24.234375 -9.484375 C 24.992188 -9.109375 25.875 -8.921875 26.875 -8.921875 C 28.625 -8.921875 30.5 -9.5 32.5 -10.65625 C 34.507812 -11.820312 36.046875 -13.59375 37.109375 -15.96875 L 38.796875 -14.75 C 37.484375 -11.738281 35.710938 -9.453125 33.484375 -7.890625 C 31.265625 -6.328125 28.96875 -5.546875 26.59375 -5.546875 C 25.144531 -5.546875 23.578125 -5.828125 21.890625 -6.390625 C 19.578125 -3.628906 17.039062 -1.375 14.28125 0.375 C 11.519531 2.125 8.828125 3 6.203125 3 Z M 21.046875 -11.46875 C 22.609375 -13.78125 23.90625 -16.1875 24.9375 -18.6875 C 25.976562 -21.195312 26.5 -23.457031 26.5 -25.46875 C 26.5 -28.21875 25.617188 -29.59375 23.859375 -29.59375 C 23.046875 -29.59375 22.203125 -29.1875 21.328125 -28.375 C 20.453125 -27.5625 19.734375 -26.476562 19.171875 -25.125 C 18.609375 -23.78125 18.328125 -22.296875 18.328125 -20.671875 C 18.328125 -19.234375 18.578125 -17.585938 19.078125 -15.734375 C 19.578125 -13.890625 20.234375 -12.46875 21.046875 -11.46875 Z M 9.578125 -1.78125 C 10.710938 -1.78125 12.09375 -2.40625 13.71875 -3.65625 C 15.34375 -4.914062 16.972656 -6.515625 18.609375 -8.453125 C 15.035156 -11.585938 13.15625 -16.191406 12.96875 -22.265625 C 12.21875 -21.890625 11.304688 -20.726562 10.234375 -18.78125 C 9.171875 -16.84375 8.265625 -14.679688 7.515625 -12.296875 C 6.765625 -9.921875 6.390625 -7.859375 6.390625 -6.109375 C 6.390625 -3.222656 7.453125 -1.78125 9.578125 -1.78125 Z M 9.578125 -1.78125 "/></g></g></g><g fill="#b08968" fill-opacity="0.4"><g transform="translate(105.835175, 81.286128)"><g><path d="M 49.140625 2.90625 C 46.816406 2.90625 45.03125 2.21875 43.78125 0.84375 C 42.53125 -0.53125 41.90625 -2.285156 41.90625 -4.421875 C 41.90625 -5.421875 42.046875 -6.53125 42.328125 -7.75 C 42.609375 -8.96875 42.9375 -10.113281 43.3125 -11.1875 C 44.125 -13.75 44.53125 -15.625 44.53125 -16.8125 C 44.53125 -18.695312 43.8125 -19.640625 42.375 -19.640625 C 41 -19.640625 39.398438 -18.632812 37.578125 -16.625 C 35.765625 -14.625 33.320312 -11.335938 30.25 -6.765625 C 29.5 -5.640625 28.375 -3.726562 26.875 -1.03125 L 25.078125 2.15625 C 23.953125 2.15625 22.734375 1.9375 21.421875 1.5 C 20.109375 1.0625 19.453125 0.46875 19.453125 -0.28125 C 19.453125 -0.90625 20.109375 -2.910156 21.421875 -6.296875 C 22.671875 -9.554688 23.6875 -12.40625 24.46875 -14.84375 C 25.257812 -17.289062 25.65625 -19.328125 25.65625 -20.953125 C 25.65625 -22.828125 24.992188 -23.765625 23.671875 -23.765625 C 21.984375 -23.765625 19.789062 -22.429688 17.09375 -19.765625 C 14.40625 -17.109375 11.742188 -13.726562 9.109375 -9.625 C 6.484375 -5.519531 4.445312 -1.46875 3 2.53125 C 1.875 2.53125 0.546875 2.21875 -0.984375 1.59375 C -2.515625 0.96875 -3.28125 0.4375 -3.28125 0 L 2.71875 -24.046875 C 2.90625 -24.734375 3.578125 -25.34375 4.734375 -25.875 C 5.898438 -26.414062 6.953125 -26.6875 7.890625 -26.6875 C 8.828125 -26.6875 9.59375 -26.398438 10.1875 -25.828125 C 10.789062 -25.265625 11.09375 -24.515625 11.09375 -23.578125 C 11.09375 -22.578125 10.648438 -20.320312 9.765625 -16.8125 C 12.773438 -20.945312 15.875 -24.375 19.0625 -27.09375 C 22.257812 -29.820312 25.269531 -31.1875 28.09375 -31.1875 C 30.21875 -31.1875 31.734375 -30.4375 32.640625 -28.9375 C 33.554688 -27.4375 34.015625 -25.554688 34.015625 -23.296875 C 34.015625 -22.109375 33.890625 -21 33.640625 -19.96875 C 33.390625 -18.9375 32.976562 -17.539062 32.40625 -15.78125 C 36.789062 -22.238281 41.332031 -25.46875 46.03125 -25.46875 C 48.289062 -25.46875 49.9375 -24.789062 50.96875 -23.4375 C 52 -22.09375 52.515625 -20.421875 52.515625 -18.421875 C 52.515625 -16.410156 51.890625 -13.585938 50.640625 -9.953125 C 50.578125 -9.703125 50.34375 -8.890625 49.9375 -7.515625 C 49.53125 -6.140625 49.328125 -5.015625 49.328125 -4.140625 C 49.328125 -2.441406 50.109375 -1.59375 51.671875 -1.59375 C 53.929688 -1.59375 56.140625 -3.03125 58.296875 -5.90625 C 60.460938 -8.789062 62.484375 -12.238281 64.359375 -16.25 L 65.953125 -14.28125 C 64.140625 -9.582031 61.804688 -5.539062 58.953125 -2.15625 C 56.109375 1.21875 52.835938 2.90625 49.140625 2.90625 Z M 49.140625 2.90625 "/></g></g></g><g fill="#b08968" fill-opacity="0.4"><g transform="translate(167.847157, 81.286128)"><g><path d="M 11 4.796875 C 6.613281 4.796875 3.367188 3.523438 1.265625 0.984375 C -0.828125 -1.546875 -1.875 -4.566406 -1.875 -8.078125 C -1.875 -10.523438 -1.4375 -12.234375 -0.5625 -13.203125 C 0.3125 -14.171875 1.296875 -14.90625 2.390625 -15.40625 C 3.492188 -15.90625 4.140625 -16.25 4.328125 -16.4375 C 8.328125 -20.570312 11.363281 -24.863281 13.4375 -29.3125 L 13.4375 -30.25 C 13.4375 -32.570312 13.828125 -34.296875 14.609375 -35.421875 C 15.390625 -36.546875 16.40625 -37.109375 17.65625 -37.109375 C 19.039062 -37.109375 19.796875 -36.484375 19.921875 -35.234375 C 19.921875 -34.921875 19.84375 -34.453125 19.6875 -33.828125 C 19.53125 -33.203125 19.453125 -32.539062 19.453125 -31.84375 C 19.453125 -30.65625 19.640625 -29.40625 20.015625 -28.09375 C 20.390625 -26.78125 20.984375 -24.992188 21.796875 -22.734375 C 22.796875 -19.984375 23.5625 -17.601562 24.09375 -15.59375 C 24.625 -13.59375 24.890625 -11.554688 24.890625 -9.484375 C 24.890625 -8.421875 24.765625 -7.140625 24.515625 -5.640625 C 28.773438 -6.703125 32.472656 -10.238281 35.609375 -16.25 L 36.734375 -15.40625 C 35.484375 -11.832031 33.742188 -8.945312 31.515625 -6.75 C 29.296875 -4.5625 26.679688 -3.25 23.671875 -2.8125 C 22.671875 -0.3125 21.039062 1.578125 18.78125 2.859375 C 16.53125 4.148438 13.9375 4.796875 11 4.796875 Z M 17.09375 -5.828125 C 17.28125 -6.390625 17.375 -7.359375 17.375 -8.734375 C 17.3125 -10.742188 17.09375 -12.71875 16.71875 -14.65625 C 16.34375 -16.59375 15.78125 -19.097656 15.03125 -22.171875 L 14.1875 -25.5625 C 11.113281 -20.226562 8.390625 -16.3125 6.015625 -13.8125 C 7.078125 -12 8.578125 -10.351562 10.515625 -8.875 C 12.460938 -7.40625 14.65625 -6.390625 17.09375 -5.828125 Z M 10.328125 0.65625 C 11.585938 0.65625 12.765625 0.34375 13.859375 -0.28125 C 14.953125 -0.90625 15.78125 -1.8125 16.34375 -3 C 13.90625 -3.507812 11.648438 -4.46875 9.578125 -5.875 C 7.515625 -7.28125 5.859375 -8.796875 4.609375 -10.421875 C 3.722656 -10.234375 3.28125 -9.390625 3.28125 -7.890625 C 3.28125 -5.640625 3.90625 -3.648438 5.15625 -1.921875 C 6.414062 -0.203125 8.140625 0.65625 10.328125 0.65625 Z M 10.328125 0.65625 "/></g></g></g><g fill="#b08968" fill-opacity="0.4"><g transform="translate(200.826256, 81.286128)"><g/></g></g><g fill="#b08968" fill-opacity="0.4"><g transform="translate(225.255207, 81.286128)"><g><path d="M 10.609375 5.265625 C 7.234375 5.265625 4.523438 4.210938 2.484375 2.109375 C 0.453125 0.015625 -0.5625 -3.066406 -0.5625 -7.140625 C -0.5625 -11.148438 0.453125 -15.0625 2.484375 -18.875 C 4.523438 -22.695312 7.171875 -25.796875 10.421875 -28.171875 C 13.679688 -30.554688 16.972656 -31.75 20.296875 -31.75 C 22.796875 -31.75 24.65625 -31.125 25.875 -29.875 C 27.101562 -28.625 27.71875 -27.054688 27.71875 -25.171875 C 27.71875 -23.296875 27.257812 -21.554688 26.34375 -19.953125 C 25.4375 -18.359375 24.328125 -17.5625 23.015625 -17.5625 C 21.828125 -17.5625 20.859375 -18.160156 20.109375 -19.359375 C 20.859375 -19.859375 21.546875 -20.734375 22.171875 -21.984375 C 22.796875 -23.234375 23.109375 -24.707031 23.109375 -26.40625 C 23.109375 -27.46875 22.515625 -28 21.328125 -28 C 19.328125 -28 17.164062 -26.804688 14.84375 -24.421875 C 12.53125 -22.046875 10.585938 -19.164062 9.015625 -15.78125 C 7.453125 -12.394531 6.671875 -9.328125 6.671875 -6.578125 C 6.671875 -4.566406 7.171875 -2.890625 8.171875 -1.546875 C 9.171875 -0.203125 10.894531 0.46875 13.34375 0.46875 C 15.71875 0.46875 18.203125 -0.21875 20.796875 -1.59375 C 23.398438 -2.976562 25.828125 -4.9375 28.078125 -7.46875 C 30.335938 -10.007812 32.128906 -12.9375 33.453125 -16.25 L 35.328125 -14.5625 C 33.828125 -10.800781 31.742188 -7.414062 29.078125 -4.40625 C 26.410156 -1.40625 23.445312 0.953125 20.1875 2.671875 C 16.9375 4.398438 13.742188 5.265625 10.609375 5.265625 Z M 10.609375 5.265625 "/></g></g></g><g fill="#b08968" fill-opacity="0.4"><g transform="translate(256.543068, 81.286128)"><g><path d="M 8.078125 2.8125 C 5.328125 2.8125 3.320312 1.90625 2.0625 0.09375 C 0.8125 -1.71875 0.1875 -4.128906 0.1875 -7.140625 C 0.1875 -12.898438 2.144531 -20.601562 6.0625 -30.25 C 9.976562 -39.894531 14.378906 -48.535156 19.265625 -56.171875 C 24.148438 -63.816406 27.75 -67.640625 30.0625 -67.640625 C 31.125 -67.640625 32.03125 -66.8125 32.78125 -65.15625 C 33.539062 -63.5 33.953125 -61.820312 34.015625 -60.125 C 34.015625 -57.25 32.851562 -53.035156 30.53125 -47.484375 C 28.21875 -41.941406 25.101562 -36.320312 21.1875 -30.625 C 17.269531 -24.925781 13.085938 -20.320312 8.640625 -16.8125 C 7.953125 -12.9375 7.609375 -9.992188 7.609375 -7.984375 C 7.609375 -5.796875 7.96875 -4.164062 8.6875 -3.09375 C 9.40625 -2.03125 10.394531 -1.5 11.65625 -1.5 C 13.84375 -1.5 16.171875 -2.953125 18.640625 -5.859375 C 21.117188 -8.773438 23.328125 -12.300781 25.265625 -16.4375 L 27.53125 -15.21875 C 24.769531 -9.519531 21.726562 -5.085938 18.40625 -1.921875 C 15.09375 1.234375 11.648438 2.8125 8.078125 2.8125 Z M 10.328125 -22.640625 C 13.710938 -26.273438 16.890625 -30.535156 19.859375 -35.421875 C 22.835938 -40.304688 25.21875 -44.941406 27 -49.328125 C 28.789062 -53.710938 29.6875 -56.96875 29.6875 -59.09375 C 28.875 -59.09375 27.226562 -57.179688 24.75 -53.359375 C 22.28125 -49.546875 19.679688 -44.800781 16.953125 -39.125 C 14.234375 -33.457031 12.023438 -27.960938 10.328125 -22.640625 Z M 10.328125 -22.640625 "/></g></g></g><g clip-path="url(#0d469ca746)"><g fill="#b08968" fill-opacity="0.4"><g transform="translate(279.562678, 81.286128)"><g><path d="M 7.140625 2.8125 C 5.078125 2.8125 3.351562 1.84375 1.96875 -0.09375 C 0.59375 -2.03125 -0.09375 -4.316406 -0.09375 -6.953125 C -0.09375 -9.203125 0.40625 -12.019531 1.40625 -15.40625 C 2.40625 -18.789062 3.578125 -21.734375 4.921875 -24.234375 C 6.273438 -26.742188 7.453125 -28 8.453125 -28 C 8.890625 -28 9.5625 -27.765625 10.46875 -27.296875 C 11.382812 -26.828125 12.1875 -26.25 12.875 -25.5625 C 11.5625 -23.613281 10.195312 -20.820312 8.78125 -17.1875 C 7.375 -13.5625 6.671875 -10.429688 6.671875 -7.796875 C 6.671875 -6.609375 6.84375 -5.367188 7.1875 -4.078125 C 7.53125 -2.796875 8.296875 -2.15625 9.484375 -2.15625 C 11.804688 -2.15625 14.578125 -4.738281 17.796875 -9.90625 C 21.023438 -15.070312 23.800781 -20.320312 26.125 -25.65625 C 29.875 -25.019531 31.75 -23.953125 31.75 -22.453125 C 31.75 -22.328125 31.375 -21.421875 30.625 -19.734375 C 29.3125 -16.660156 28.1875 -13.804688 27.25 -11.171875 C 26.3125 -8.546875 25.84375 -6.265625 25.84375 -4.328125 C 25.84375 -2.128906 26.6875 -1.03125 28.375 -1.03125 C 29.6875 -1.03125 31.265625 -1.640625 33.109375 -2.859375 C 34.960938 -4.085938 36.859375 -5.84375 38.796875 -8.125 C 40.742188 -10.414062 42.4375 -13.0625 43.875 -16.0625 L 45.28125 -14.9375 C 43.90625 -11.550781 42.117188 -8.507812 39.921875 -5.8125 C 37.734375 -3.125 35.367188 -1.015625 32.828125 0.515625 C 30.296875 2.046875 27.875 2.8125 25.5625 2.8125 C 22.800781 2.8125 21.03125 1.859375 20.25 -0.046875 C 19.46875 -1.953125 19.078125 -4.503906 19.078125 -7.703125 C 16.941406 -4.441406 14.929688 -1.875 13.046875 0 C 11.171875 1.875 9.203125 2.8125 7.140625 2.8125 Z M 7.140625 2.8125 "/></g></g><g transform="translate(320.997931, 81.286128)"><g><path d="M 9.859375 6.859375 C 6.359375 6.859375 3.664062 5.757812 1.78125 3.5625 C -0.09375 1.375 -1.03125 -1.691406 -1.03125 -5.640625 C -1.03125 -11.523438 0.84375 -19.398438 4.59375 -29.265625 C 8.351562 -39.128906 12.644531 -47.894531 17.46875 -55.5625 C 22.289062 -63.238281 26.082031 -67.078125 28.84375 -67.078125 C 30.03125 -67.078125 30.953125 -66.421875 31.609375 -65.109375 C 32.273438 -63.796875 32.640625 -62.289062 32.703125 -60.59375 C 32.703125 -57.59375 31.664062 -53.664062 29.59375 -48.8125 C 27.53125 -43.957031 24.820312 -39.304688 21.46875 -34.859375 C 18.113281 -30.410156 14.59375 -27.117188 10.90625 -24.984375 C 10.019531 -23.359375 9.09375 -20.679688 8.125 -16.953125 C 7.15625 -13.234375 6.671875 -9.648438 6.671875 -6.203125 C 6.671875 -3.441406 7.0625 -1.234375 7.84375 0.421875 C 8.625 2.078125 9.863281 2.90625 11.5625 2.90625 C 13.1875 2.90625 14.9375 2.171875 16.8125 0.703125 C 18.695312 -0.765625 20.234375 -2.597656 21.421875 -4.796875 C 19.160156 -6.046875 17.421875 -7.78125 16.203125 -10 C 14.984375 -12.226562 14.375 -14.625 14.375 -17.1875 C 14.375 -20.195312 15.1875 -22.65625 16.8125 -24.5625 C 18.445312 -26.476562 20.484375 -27.4375 22.921875 -27.4375 C 25.054688 -27.4375 26.75 -26.632812 28 -25.03125 C 29.25 -23.4375 29.875 -21.101562 29.875 -18.03125 C 29.875 -14.21875 28.9375 -10.273438 27.0625 -6.203125 L 28.75 -6.109375 C 31.632812 -6.109375 34.015625 -7.109375 35.890625 -9.109375 C 37.765625 -11.117188 39.425781 -13.59375 40.875 -16.53125 L 42.28125 -14.5625 C 40.582031 -10.675781 38.59375 -7.804688 36.3125 -5.953125 C 34.03125 -4.109375 31.101562 -3.1875 27.53125 -3.1875 C 26.65625 -3.1875 26 -3.21875 25.5625 -3.28125 C 23.613281 -0.21875 21.320312 2.234375 18.6875 4.078125 C 16.0625 5.929688 13.117188 6.859375 9.859375 6.859375 Z M 12.6875 -30.90625 C 15.25 -33.226562 17.71875 -36.25 20.09375 -39.96875 C 22.476562 -43.695312 24.421875 -47.300781 25.921875 -50.78125 C 27.429688 -54.257812 28.21875 -56.75 28.28125 -58.25 C 27.46875 -57.9375 26.054688 -56.367188 24.046875 -53.546875 C 22.046875 -50.734375 19.976562 -47.273438 17.84375 -43.171875 C 15.71875 -39.066406 14 -34.976562 12.6875 -30.90625 Z M 23.015625 -7.890625 C 24.140625 -10.460938 24.703125 -13.125 24.703125 -15.875 C 24.703125 -18.007812 24.453125 -19.640625 23.953125 -20.765625 C 23.453125 -21.890625 22.796875 -22.453125 21.984375 -22.453125 C 21.171875 -22.453125 20.46875 -21.890625 19.875 -20.765625 C 19.28125 -19.640625 18.984375 -18.289062 18.984375 -16.71875 C 18.984375 -15.15625 19.3125 -13.539062 19.96875 -11.875 C 20.625 -10.21875 21.640625 -8.890625 23.015625 -7.890625 Z M 23.015625 -7.890625 "/></g></g></g></g><g fill="#5d4e3a" fill-opacity="1"><g transform="translate(4.718623, 77.133754)"><g><path d="M 49.140625 2.90625 C 46.816406 2.90625 45.03125 2.21875 43.78125 0.84375 C 42.53125 -0.53125 41.90625 -2.285156 41.90625 -4.421875 C 41.90625 -5.421875 42.046875 -6.53125 42.328125 -7.75 C 42.609375 -8.96875 42.9375 -10.113281 43.3125 -11.1875 C 44.125 -13.75 44.53125 -15.625 44.53125 -16.8125 C 44.53125 -18.695312 43.8125 -19.640625 42.375 -19.640625 C 41 -19.640625 39.398438 -18.632812 37.578125 -16.625 C 35.765625 -14.625 33.320312 -11.335938 30.25 -6.765625 C 29.5 -5.640625 28.375 -3.726562 26.875 -1.03125 L 25.078125 2.15625 C 23.953125 2.15625 22.734375 1.9375 21.421875 1.5 C 20.109375 1.0625 19.453125 0.46875 19.453125 -0.28125 C 19.453125 -0.90625 20.109375 -2.910156 21.421875 -6.296875 C 22.671875 -9.554688 23.6875 -12.40625 24.46875 -14.84375 C 25.257812 -17.289062 25.65625 -19.328125 25.65625 -20.953125 C 25.65625 -22.828125 24.992188 -23.765625 23.671875 -23.765625 C 21.984375 -23.765625 19.789062 -22.429688 17.09375 -19.765625 C 14.40625 -17.109375 11.742188 -13.726562 9.109375 -9.625 C 6.484375 -5.519531 4.445312 -1.46875 3 2.53125 C 1.875 2.53125 0.546875 2.21875 -0.984375 1.59375 C -2.515625 0.96875 -3.28125 0.4375 -3.28125 0 L 2.71875 -24.046875 C 2.90625 -24.734375 3.578125 -25.34375 4.734375 -25.875 C 5.898438 -26.414062 6.953125 -26.6875 7.890625 -26.6875 C 8.828125 -26.6875 9.59375 -26.398438 10.1875 -25.828125 C 10.789062 -25.265625 11.09375 -24.515625 11.09375 -23.578125 C 11.09375 -22.578125 10.648438 -20.320312 9.765625 -16.8125 C 12.773438 -20.945312 15.875 -24.375 19.0625 -27.09375 C 22.257812 -29.820312 25.269531 -31.1875 28.09375 -31.1875 C 30.21875 -31.1875 31.734375 -30.4375 32.640625 -28.9375 C 33.554688 -27.4375 34.015625 -25.554688 34.015625 -23.296875 C 34.015625 -22.109375 33.890625 -21 33.640625 -19.96875 C 33.390625 -18.9375 32.976562 -17.539062 32.40625 -15.78125 C 36.789062 -22.238281 41.332031 -25.46875 46.03125 -25.46875 C 48.289062 -25.46875 49.9375 -24.789062 50.96875 -23.4375 C 52 -22.09375 52.515625 -20.421875 52.515625 -18.421875 C 52.515625 -16.410156 51.890625 -13.585938 50.640625 -9.953125 C 50.578125 -9.703125 50.34375 -8.890625 49.9375 -7.515625 C 49.53125 -6.140625 49.328125 -5.015625 49.328125 -4.140625 C 49.328125 -2.441406 50.109375 -1.59375 51.671875 -1.59375 C 53.929688 -1.59375 56.140625 -3.03125 58.296875 -5.90625 C 60.460938 -8.789062 62.484375 -12.238281 64.359375 -16.25 L 65.953125 -14.28125 C 64.140625 -9.582031 61.804688 -5.539062 58.953125 -2.15625 C 56.109375 1.21875 52.835938 2.90625 49.140625 2.90625 Z M 49.140625 2.90625 "/></g></g></g><g fill="#5d4e3a" fill-opacity="1"><g transform="translate(66.730596, 77.133754)"><g><path d="M 6.203125 3 C 3.628906 3 1.765625 2.15625 0.609375 0.46875 C -0.546875 -1.21875 -1.125 -3.316406 -1.125 -5.828125 C -1.125 -8.453125 -0.578125 -11.175781 0.515625 -14 C 1.609375 -16.820312 3.03125 -19.171875 4.78125 -21.046875 C 6.539062 -22.921875 8.328125 -23.859375 10.140625 -23.859375 C 10.898438 -23.859375 11.875 -23.609375 13.0625 -23.109375 C 13.4375 -25.992188 14.453125 -28.375 16.109375 -30.25 C 17.773438 -32.132812 20.109375 -33.078125 23.109375 -33.078125 C 25.617188 -33.078125 27.46875 -32.367188 28.65625 -30.953125 C 29.84375 -29.546875 30.4375 -27.71875 30.4375 -25.46875 C 30.4375 -23.269531 29.859375 -20.757812 28.703125 -17.9375 C 27.546875 -15.125 26.054688 -12.304688 24.234375 -9.484375 C 24.992188 -9.109375 25.875 -8.921875 26.875 -8.921875 C 28.625 -8.921875 30.5 -9.5 32.5 -10.65625 C 34.507812 -11.820312 36.046875 -13.59375 37.109375 -15.96875 L 38.796875 -14.75 C 37.484375 -11.738281 35.710938 -9.453125 33.484375 -7.890625 C 31.265625 -6.328125 28.96875 -5.546875 26.59375 -5.546875 C 25.144531 -5.546875 23.578125 -5.828125 21.890625 -6.390625 C 19.578125 -3.628906 17.039062 -1.375 14.28125 0.375 C 11.519531 2.125 8.828125 3 6.203125 3 Z M 21.046875 -11.46875 C 22.609375 -13.78125 23.90625 -16.1875 24.9375 -18.6875 C 25.976562 -21.195312 26.5 -23.457031 26.5 -25.46875 C 26.5 -28.21875 25.617188 -29.59375 23.859375 -29.59375 C 23.046875 -29.59375 22.203125 -29.1875 21.328125 -28.375 C 20.453125 -27.5625 19.734375 -26.476562 19.171875 -25.125 C 18.609375 -23.78125 18.328125 -22.296875 18.328125 -20.671875 C 18.328125 -19.234375 18.578125 -17.585938 19.078125 -15.734375 C 19.578125 -13.890625 20.234375 -12.46875 21.046875 -11.46875 Z M 9.578125 -1.78125 C 10.710938 -1.78125 12.09375 -2.40625 13.71875 -3.65625 C 15.34375 -4.914062 16.972656 -6.515625 18.609375 -8.453125 C 15.035156 -11.585938 13.15625 -16.191406 12.96875 -22.265625 C 12.21875 -21.890625 11.304688 -20.726562 10.234375 -18.78125 C 9.171875 -16.84375 8.265625 -14.679688 7.515625 -12.296875 C 6.765625 -9.921875 6.390625 -7.859375 6.390625 -6.109375 C 6.390625 -3.222656 7.453125 -1.78125 9.578125 -1.78125 Z M 9.578125 -1.78125 "/></g></g></g><g fill="#5d4e3a" fill-opacity="1"><g transform="translate(101.682803, 77.133754)"><g><path d="M 49.140625 2.90625 C 46.816406 2.90625 45.03125 2.21875 43.78125 0.84375 C 42.53125 -0.53125 41.90625 -2.285156 41.90625 -4.421875 C 41.90625 -5.421875 42.046875 -6.53125 42.328125 -7.75 C 42.609375 -8.96875 42.9375 -10.113281 43.3125 -11.1875 C 44.125 -13.75 44.53125 -15.625 44.53125 -16.8125 C 44.53125 -18.695312 43.8125 -19.640625 42.375 -19.640625 C 41 -19.640625 39.398438 -18.632812 37.578125 -16.625 C 35.765625 -14.625 33.320312 -11.335938 30.25 -6.765625 C 29.5 -5.640625 28.375 -3.726562 26.875 -1.03125 L 25.078125 2.15625 C 23.953125 2.15625 22.734375 1.9375 21.421875 1.5 C 20.109375 1.0625 19.453125 0.46875 19.453125 -0.28125 C 19.453125 -0.90625 20.109375 -2.910156 21.421875 -6.296875 C 22.671875 -9.554688 23.6875 -12.40625 24.46875 -14.84375 C 25.257812 -17.289062 25.65625 -19.328125 25.65625 -20.953125 C 25.65625 -22.828125 24.992188 -23.765625 23.671875 -23.765625 C 21.984375 -23.765625 19.789062 -22.429688 17.09375 -19.765625 C 14.40625 -17.109375 11.742188 -13.726562 9.109375 -9.625 C 6.484375 -5.519531 4.445312 -1.46875 3 2.53125 C 1.875 2.53125 0.546875 2.21875 -0.984375 1.59375 C -2.515625 0.96875 -3.28125 0.4375 -3.28125 0 L 2.71875 -24.046875 C 2.90625 -24.734375 3.578125 -25.34375 4.734375 -25.875 C 5.898438 -26.414062 6.953125 -26.6875 7.890625 -26.6875 C 8.828125 -26.6875 9.59375 -26.398438 10.1875 -25.828125 C 10.789062 -25.265625 11.09375 -24.515625 11.09375 -23.578125 C 11.09375 -22.578125 10.648438 -20.320312 9.765625 -16.8125 C 12.773438 -20.945312 15.875 -24.375 19.0625 -27.09375 C 22.257812 -29.820312 25.269531 -31.1875 28.09375 -31.1875 C 30.21875 -31.1875 31.734375 -30.4375 32.640625 -28.9375 C 33.554688 -27.4375 34.015625 -25.554688 34.015625 -23.296875 C 34.015625 -22.109375 33.890625 -21 33.640625 -19.96875 C 33.390625 -18.9375 32.976562 -17.539062 32.40625 -15.78125 C 36.789062 -22.238281 41.332031 -25.46875 46.03125 -25.46875 C 48.289062 -25.46875 49.9375 -24.789062 50.96875 -23.4375 C 52 -22.09375 52.515625 -20.421875 52.515625 -18.421875 C 52.515625 -16.410156 51.890625 -13.585938 50.640625 -9.953125 C 50.578125 -9.703125 50.34375 -8.890625 49.9375 -7.515625 C 49.53125 -6.140625 49.328125 -5.015625 49.328125 -4.140625 C 49.328125 -2.441406 50.109375 -1.59375 51.671875 -1.59375 C 53.929688 -1.59375 56.140625 -3.03125 58.296875 -5.90625 C 60.460938 -8.789062 62.484375 -12.238281 64.359375 -16.25 L 65.953125 -14.28125 C 64.140625 -9.582031 61.804688 -5.539062 58.953125 -2.15625 C 56.109375 1.21875 52.835938 2.90625 49.140625 2.90625 Z M 49.140625 2.90625 "/></g></g></g><g fill="#5d4e3a" fill-opacity="1"><g transform="translate(163.694785, 77.133754)"><g><path d="M 11 4.796875 C 6.613281 4.796875 3.367188 3.523438 1.265625 0.984375 C -0.828125 -1.546875 -1.875 -4.566406 -1.875 -8.078125 C -1.875 -10.523438 -1.4375 -12.234375 -0.5625 -13.203125 C 0.3125 -14.171875 1.296875 -14.90625 2.390625 -15.40625 C 3.492188 -15.90625 4.140625 -16.25 4.328125 -16.4375 C 8.328125 -20.570312 11.363281 -24.863281 13.4375 -29.3125 L 13.4375 -30.25 C 13.4375 -32.570312 13.828125 -34.296875 14.609375 -35.421875 C 15.390625 -36.546875 16.40625 -37.109375 17.65625 -37.109375 C 19.039062 -37.109375 19.796875 -36.484375 19.921875 -35.234375 C 19.921875 -34.921875 19.84375 -34.453125 19.6875 -33.828125 C 19.53125 -33.203125 19.453125 -32.539062 19.453125 -31.84375 C 19.453125 -30.65625 19.640625 -29.40625 20.015625 -28.09375 C 20.390625 -26.78125 20.984375 -24.992188 21.796875 -22.734375 C 22.796875 -19.984375 23.5625 -17.601562 24.09375 -15.59375 C 24.625 -13.59375 24.890625 -11.554688 24.890625 -9.484375 C 24.890625 -8.421875 24.765625 -7.140625 24.515625 -5.640625 C 28.773438 -6.703125 32.472656 -10.238281 35.609375 -16.25 L 36.734375 -15.40625 C 35.484375 -11.832031 33.742188 -8.945312 31.515625 -6.75 C 29.296875 -4.5625 26.679688 -3.25 23.671875 -2.8125 C 22.671875 -0.3125 21.039062 1.578125 18.78125 2.859375 C 16.53125 4.148438 13.9375 4.796875 11 4.796875 Z M 17.09375 -5.828125 C 17.28125 -6.390625 17.375 -7.359375 17.375 -8.734375 C 17.3125 -10.742188 17.09375 -12.71875 16.71875 -14.65625 C 16.34375 -16.59375 15.78125 -19.097656 15.03125 -22.171875 L 14.1875 -25.5625 C 11.113281 -20.226562 8.390625 -16.3125 6.015625 -13.8125 C 7.078125 -12 8.578125 -10.351562 10.515625 -8.875 C 12.460938 -7.40625 14.65625 -6.390625 17.09375 -5.828125 Z M 10.328125 0.65625 C 11.585938 0.65625 12.765625 0.34375 13.859375 -0.28125 C 14.953125 -0.90625 15.78125 -1.8125 16.34375 -3 C 13.90625 -3.507812 11.648438 -4.46875 9.578125 -5.875 C 7.515625 -7.28125 5.859375 -8.796875 4.609375 -10.421875 C 3.722656 -10.234375 3.28125 -9.390625 3.28125 -7.890625 C 3.28125 -5.640625 3.90625 -3.648438 5.15625 -1.921875 C 6.414062 -0.203125 8.140625 0.65625 10.328125 0.65625 Z M 10.328125 0.65625 "/></g></g></g><g fill="#5d4e3a" fill-opacity="1"><g transform="translate(196.673883, 77.133754)"><g/></g></g><g fill="#5d4e3a" fill-opacity="1"><g transform="translate(221.102834, 77.133754)"><g><path d="M 10.609375 5.265625 C 7.234375 5.265625 4.523438 4.210938 2.484375 2.109375 C 0.453125 0.015625 -0.5625 -3.066406 -0.5625 -7.140625 C -0.5625 -11.148438 0.453125 -15.0625 2.484375 -18.875 C 4.523438 -22.695312 7.171875 -25.796875 10.421875 -28.171875 C 13.679688 -30.554688 16.972656 -31.75 20.296875 -31.75 C 22.796875 -31.75 24.65625 -31.125 25.875 -29.875 C 27.101562 -28.625 27.71875 -27.054688 27.71875 -25.171875 C 27.71875 -23.296875 27.257812 -21.554688 26.34375 -19.953125 C 25.4375 -18.359375 24.328125 -17.5625 23.015625 -17.5625 C 21.828125 -17.5625 20.859375 -18.160156 20.109375 -19.359375 C 20.859375 -19.859375 21.546875 -20.734375 22.171875 -21.984375 C 22.796875 -23.234375 23.109375 -24.707031 23.109375 -26.40625 C 23.109375 -27.46875 22.515625 -28 21.328125 -28 C 19.328125 -28 17.164062 -26.804688 14.84375 -24.421875 C 12.53125 -22.046875 10.585938 -19.164062 9.015625 -15.78125 C 7.453125 -12.394531 6.671875 -9.328125 6.671875 -6.578125 C 6.671875 -4.566406 7.171875 -2.890625 8.171875 -1.546875 C 9.171875 -0.203125 10.894531 0.46875 13.34375 0.46875 C 15.71875 0.46875 18.203125 -0.21875 20.796875 -1.59375 C 23.398438 -2.976562 25.828125 -4.9375 28.078125 -7.46875 C 30.335938 -10.007812 32.128906 -12.9375 33.453125 -16.25 L 35.328125 -14.5625 C 33.828125 -10.800781 31.742188 -7.414062 29.078125 -4.40625 C 26.410156 -1.40625 23.445312 0.953125 20.1875 2.671875 C 16.9375 4.398438 13.742188 5.265625 10.609375 5.265625 Z M 10.609375 5.265625 "/></g></g></g><g fill="#5d4e3a" fill-opacity="1"><g transform="translate(252.390695, 77.133754)"><g><path d="M 8.078125 2.8125 C 5.328125 2.8125 3.320312 1.90625 2.0625 0.09375 C 0.8125 -1.71875 0.1875 -4.128906 0.1875 -7.140625 C 0.1875 -12.898438 2.144531 -20.601562 6.0625 -30.25 C 9.976562 -39.894531 14.378906 -48.535156 19.265625 -56.171875 C 24.148438 -63.816406 27.75 -67.640625 30.0625 -67.640625 C 31.125 -67.640625 32.03125 -66.8125 32.78125 -65.15625 C 33.539062 -63.5 33.953125 -61.820312 34.015625 -60.125 C 34.015625 -57.25 32.851562 -53.035156 30.53125 -47.484375 C 28.21875 -41.941406 25.101562 -36.320312 21.1875 -30.625 C 17.269531 -24.925781 13.085938 -20.320312 8.640625 -16.8125 C 7.953125 -12.9375 7.609375 -9.992188 7.609375 -7.984375 C 7.609375 -5.796875 7.96875 -4.164062 8.6875 -3.09375 C 9.40625 -2.03125 10.394531 -1.5 11.65625 -1.5 C 13.84375 -1.5 16.171875 -2.953125 18.640625 -5.859375 C 21.117188 -8.773438 23.328125 -12.300781 25.265625 -16.4375 L 27.53125 -15.21875 C 24.769531 -9.519531 21.726562 -5.085938 18.40625 -1.921875 C 15.09375 1.234375 11.648438 2.8125 8.078125 2.8125 Z M 10.328125 -22.640625 C 13.710938 -26.273438 16.890625 -30.535156 19.859375 -35.421875 C 22.835938 -40.304688 25.21875 -44.941406 27 -49.328125 C 28.789062 -53.710938 29.6875 -56.96875 29.6875 -59.09375 C 28.875 -59.09375 27.226562 -57.179688 24.75 -53.359375 C 22.28125 -49.546875 19.679688 -44.800781 16.953125 -39.125 C 14.234375 -33.457031 12.023438 -27.960938 10.328125 -22.640625 Z M 10.328125 -22.640625 "/></g></g></g><g fill="#5d4e3a" fill-opacity="1"><g transform="translate(275.410305, 77.133754)"><g><path d="M 7.140625 2.8125 C 5.078125 2.8125 3.351562 1.84375 1.96875 -0.09375 C 0.59375 -2.03125 -0.09375 -4.316406 -0.09375 -6.953125 C -0.09375 -9.203125 0.40625 -12.019531 1.40625 -15.40625 C 2.40625 -18.789062 3.578125 -21.734375 4.921875 -24.234375 C 6.273438 -26.742188 7.453125 -28 8.453125 -28 C 8.890625 -28 9.5625 -27.765625 10.46875 -27.296875 C 11.382812 -26.828125 12.1875 -26.25 12.875 -25.5625 C 11.5625 -23.613281 10.195312 -20.820312 8.78125 -17.1875 C 7.375 -13.5625 6.671875 -10.429688 6.671875 -7.796875 C 6.671875 -6.609375 6.84375 -5.367188 7.1875 -4.078125 C 7.53125 -2.796875 8.296875 -2.15625 9.484375 -2.15625 C 11.804688 -2.15625 14.578125 -4.738281 17.796875 -9.90625 C 21.023438 -15.070312 23.800781 -20.320312 26.125 -25.65625 C 29.875 -25.019531 31.75 -23.953125 31.75 -22.453125 C 31.75 -22.328125 31.375 -21.421875 30.625 -19.734375 C 29.3125 -16.660156 28.1875 -13.804688 27.25 -11.171875 C 26.3125 -8.546875 25.84375 -6.265625 25.84375 -4.328125 C 25.84375 -2.128906 26.6875 -1.03125 28.375 -1.03125 C 29.6875 -1.03125 31.265625 -1.640625 33.109375 -2.859375 C 34.960938 -4.085938 36.859375 -5.84375 38.796875 -8.125 C 40.742188 -10.414062 42.4375 -13.0625 43.875 -16.0625 L 45.28125 -14.9375 C 43.90625 -11.550781 42.117188 -8.507812 39.921875 -5.8125 C 37.734375 -3.125 35.367188 -1.015625 32.828125 0.515625 C 30.296875 2.046875 27.875 2.8125 25.5625 2.8125 C 22.800781 2.8125 21.03125 1.859375 20.25 -0.046875 C 19.46875 -1.953125 19.078125 -4.503906 19.078125 -7.703125 C 16.941406 -4.441406 14.929688 -1.875 13.046875 0 C 11.171875 1.875 9.203125 2.8125 7.140625 2.8125 Z M 7.140625 2.8125 "/></g></g><g transform="translate(316.845558, 77.133754)"><g><path d="M 9.859375 6.859375 C 6.359375 6.859375 3.664062 5.757812 1.78125 3.5625 C -0.09375 1.375 -1.03125 -1.691406 -1.03125 -5.640625 C -1.03125 -11.523438 0.84375 -19.398438 4.59375 -29.265625 C 8.351562 -39.128906 12.644531 -47.894531 17.46875 -55.5625 C 22.289062 -63.238281 26.082031 -67.078125 28.84375 -67.078125 C 30.03125 -67.078125 30.953125 -66.421875 31.609375 -65.109375 C 32.273438 -63.796875 32.640625 -62.289062 32.703125 -60.59375 C 32.703125 -57.59375 31.664062 -53.664062 29.59375 -48.8125 C 27.53125 -43.957031 24.820312 -39.304688 21.46875 -34.859375 C 18.113281 -30.410156 14.59375 -27.117188 10.90625 -24.984375 C 10.019531 -23.359375 9.09375 -20.679688 8.125 -16.953125 C 7.15625 -13.234375 6.671875 -9.648438 6.671875 -6.203125 C 6.671875 -3.441406 7.0625 -1.234375 7.84375 0.421875 C 8.625 2.078125 9.863281 2.90625 11.5625 2.90625 C 13.1875 2.90625 14.9375 2.171875 16.8125 0.703125 C 18.695312 -0.765625 20.234375 -2.597656 21.421875 -4.796875 C 19.160156 -6.046875 17.421875 -7.78125 16.203125 -10 C 14.984375 -12.226562 14.375 -14.625 14.375 -17.1875 C 14.375 -20.195312 15.1875 -22.65625 16.8125 -24.5625 C 18.445312 -26.476562 20.484375 -27.4375 22.921875 -27.4375 C 25.054688 -27.4375 26.75 -26.632812 28 -25.03125 C 29.25 -23.4375 29.875 -21.101562 29.875 -18.03125 C 29.875 -14.21875 28.9375 -10.273438 27.0625 -6.203125 L 28.75 -6.109375 C 31.632812 -6.109375 34.015625 -7.109375 35.890625 -9.109375 C 37.765625 -11.117188 39.425781 -13.59375 40.875 -16.53125 L 42.28125 -14.5625 C 40.582031 -10.675781 38.59375 -7.804688 36.3125 -5.953125 C 34.03125 -4.109375 31.101562 -3.1875 27.53125 -3.1875 C 26.65625 -3.1875 26 -3.21875 25.5625 -3.28125 C 23.613281 -0.21875 21.320312 2.234375 18.6875 4.078125 C 16.0625 5.929688 13.117188 6.859375 9.859375 6.859375 Z M 12.6875 -30.90625 C 15.25 -33.226562 17.71875 -36.25 20.09375 -39.96875 C 22.476562 -43.695312 24.421875 -47.300781 25.921875 -50.78125 C 27.429688 -54.257812 28.21875 -56.75 28.28125 -58.25 C 27.46875 -57.9375 26.054688 -56.367188 24.046875 -53.546875 C 22.046875 -50.734375 19.976562 -47.273438 17.84375 -43.171875 C 15.71875 -39.066406 14 -34.976562 12.6875 -30.90625 Z M 23.015625 -7.890625 C 24.140625 -10.460938 24.703125 -13.125 24.703125 -15.875 C 24.703125 -18.007812 24.453125 -19.640625 23.953125 -20.765625 C 23.453125 -21.890625 22.796875 -22.453125 21.984375 -22.453125 C 21.171875 -22.453125 20.46875 -21.890625 19.875 -20.765625 C 19.28125 -19.640625 18.984375 -18.289062 18.984375 -16.71875 C 18.984375 -15.15625 19.3125 -13.539062 19.96875 -11.875 C 20.625 -10.21875 21.640625 -8.890625 23.015625 -7.890625 Z M 23.015625 -7.890625 "/></g></g></g></g></g></g></g></g></g><g mask="url(#2314f0eb46)"><g transform="matrix(1, 0, 0, 1, 197, 87)"><g clip-path="url(#13e55f64dc)"><g clip-path="url(#8fec21efe7)"><g><g clip-path="url(#4b87c16c1f)"><g fill="#b08968" fill-opacity="1"><g transform="translate(1.835254, 11.930114)"><g><path d="M 2.984375 -1.265625 L 4.03125 -1.265625 L 4.03125 0.21875 L 2.984375 0.21875 C 2.515625 0.21875 2.09375 0.125 1.71875 -0.0625 C 1.34375 -0.25 1.039062 -0.5 0.8125 -0.8125 C 0.582031 -1.132812 0.46875 -1.488281 0.46875 -1.875 L 0.46875 -10.0625 L 2.15625 -10.0625 L 2.15625 -1.875 C 2.15625 -1.707031 2.234375 -1.5625 2.390625 -1.4375 C 2.554688 -1.320312 2.753906 -1.265625 2.984375 -1.265625 Z M 2.984375 -1.265625 "/></g></g></g><g fill="#b08968" fill-opacity="1"><g transform="translate(5.862608, 11.930114)"><g><path d="M 2.203125 0 L 0.515625 0 L 0.515625 -7.546875 L 2.203125 -7.546875 Z M 2.203125 -7.96875 L 0.515625 -7.96875 L 0.515625 -9.65625 L 2.203125 -9.65625 Z M 2.203125 -7.96875 "/></g></g></g><g fill="#b08968" fill-opacity="1"><g transform="translate(8.572757, 11.930114)"><g><path d="M 5.03125 -7.765625 C 5.644531 -7.765625 6.222656 -7.660156 6.765625 -7.453125 C 7.316406 -7.242188 7.800781 -6.957031 8.21875 -6.59375 C 8.632812 -6.226562 8.957031 -5.800781 9.1875 -5.3125 C 9.425781 -4.832031 9.546875 -4.320312 9.546875 -3.78125 C 9.546875 -3.039062 9.382812 -2.367188 9.0625 -1.765625 C 8.738281 -1.160156 8.304688 -0.675781 7.765625 -0.3125 C 7.222656 0.0390625 6.625 0.21875 5.96875 0.21875 C 5.3125 0.21875 4.710938 0.0546875 4.171875 -0.265625 C 3.628906 -0.585938 3.195312 -1.015625 2.875 -1.546875 C 2.5625 -2.085938 2.40625 -2.6875 2.40625 -3.34375 L 4.078125 -3.34375 C 4.078125 -2.96875 4.160156 -2.617188 4.328125 -2.296875 C 4.503906 -1.972656 4.734375 -1.71875 5.015625 -1.53125 C 5.304688 -1.351562 5.625 -1.265625 5.96875 -1.265625 C 6.320312 -1.265625 6.640625 -1.375 6.921875 -1.59375 C 7.203125 -1.820312 7.425781 -2.125 7.59375 -2.5 C 7.769531 -2.882812 7.859375 -3.3125 7.859375 -3.78125 C 7.859375 -4.238281 7.726562 -4.65625 7.46875 -5.03125 C 7.21875 -5.414062 6.878906 -5.722656 6.453125 -5.953125 C 6.023438 -6.179688 5.550781 -6.296875 5.03125 -6.296875 C 4.507812 -6.296875 4.03125 -6.179688 3.59375 -5.953125 C 3.164062 -5.722656 2.828125 -5.414062 2.578125 -5.03125 C 2.328125 -4.65625 2.203125 -4.238281 2.203125 -3.78125 L 2.203125 0 L 0.515625 0 L 0.515625 -10.0625 L 2.203125 -10.0625 L 2.203125 -7.4375 C 2.203125 -7.207031 2.148438 -6.984375 2.046875 -6.765625 L 1.671875 -5.90625 L 1.875 -5.8125 L 2.171875 -6.484375 C 2.347656 -6.890625 2.640625 -7.175781 3.046875 -7.34375 C 3.335938 -7.476562 3.648438 -7.582031 3.984375 -7.65625 C 4.328125 -7.726562 4.675781 -7.765625 5.03125 -7.765625 Z M 5.03125 -7.765625 "/></g></g></g><g fill="#b08968" fill-opacity="1"><g transform="translate(18.308073, 11.930114)"><g><path d="M 5.03125 -7.765625 C 5.6875 -7.765625 6.285156 -7.601562 6.828125 -7.28125 C 7.367188 -6.96875 7.796875 -6.539062 8.109375 -6 C 8.429688 -5.457031 8.59375 -4.859375 8.59375 -4.203125 L 6.90625 -4.203125 C 6.90625 -4.585938 6.820312 -4.9375 6.65625 -5.25 C 6.488281 -5.570312 6.257812 -5.828125 5.96875 -6.015625 C 5.6875 -6.203125 5.375 -6.296875 5.03125 -6.296875 C 4.507812 -6.296875 4.03125 -6.179688 3.59375 -5.953125 C 3.164062 -5.722656 2.828125 -5.414062 2.578125 -5.03125 C 2.328125 -4.65625 2.203125 -4.238281 2.203125 -3.78125 L 2.203125 0 L 0.515625 0 L 0.515625 -7.546875 L 2.203125 -7.546875 L 2.203125 -7.4375 C 2.203125 -7.207031 2.148438 -6.984375 2.046875 -6.765625 L 1.671875 -5.90625 L 1.875 -5.8125 L 2.171875 -6.484375 C 2.347656 -6.890625 2.640625 -7.175781 3.046875 -7.34375 C 3.335938 -7.476562 3.648438 -7.582031 3.984375 -7.65625 C 4.316406 -7.726562 4.664062 -7.765625 5.03125 -7.765625 Z M 5.03125 -7.765625 "/></g></g></g><g fill="#b08968" fill-opacity="1"><g transform="translate(26.953279, 11.930114)"><g><path d="M 7.546875 -7.546875 L 9.234375 -7.546875 L 9.234375 0 L 7.546875 0 L 7.546875 -3.78125 C 7.546875 -4.238281 7.414062 -4.65625 7.15625 -5.03125 C 6.90625 -5.414062 6.5625 -5.722656 6.125 -5.953125 C 5.695312 -6.179688 5.226562 -6.296875 4.71875 -6.296875 C 4.1875 -6.296875 3.707031 -6.179688 3.28125 -5.953125 C 2.851562 -5.722656 2.507812 -5.414062 2.25 -5.03125 C 2 -4.65625 1.875 -4.238281 1.875 -3.78125 C 1.875 -3.3125 1.957031 -2.882812 2.125 -2.5 C 2.289062 -2.125 2.519531 -1.820312 2.8125 -1.59375 C 3.101562 -1.375 3.421875 -1.265625 3.765625 -1.265625 C 4.117188 -1.265625 4.4375 -1.351562 4.71875 -1.53125 C 5 -1.71875 5.222656 -1.972656 5.390625 -2.296875 C 5.566406 -2.617188 5.65625 -2.96875 5.65625 -3.34375 L 7.328125 -3.34375 C 7.328125 -2.6875 7.164062 -2.085938 6.84375 -1.546875 C 6.519531 -1.015625 6.09375 -0.585938 5.5625 -0.265625 C 5.03125 0.0546875 4.429688 0.21875 3.765625 0.21875 C 3.109375 0.21875 2.507812 0.0390625 1.96875 -0.3125 C 1.4375 -0.675781 1.007812 -1.160156 0.6875 -1.765625 C 0.363281 -2.367188 0.203125 -3.039062 0.203125 -3.78125 C 0.203125 -4.320312 0.316406 -4.832031 0.546875 -5.3125 C 0.773438 -5.800781 1.097656 -6.226562 1.515625 -6.59375 C 1.929688 -6.957031 2.410156 -7.242188 2.953125 -7.453125 C 3.503906 -7.660156 4.09375 -7.765625 4.71875 -7.765625 C 5.070312 -7.765625 5.414062 -7.726562 5.75 -7.65625 C 6.082031 -7.582031 6.398438 -7.476562 6.703125 -7.34375 C 7.109375 -7.175781 7.394531 -6.890625 7.5625 -6.484375 L 7.859375 -5.8125 L 8.0625 -5.90625 L 7.6875 -6.765625 C 7.59375 -6.984375 7.546875 -7.207031 7.546875 -7.4375 Z M 7.546875 -7.546875 "/></g></g></g><g fill="#b08968" fill-opacity="1"><g transform="translate(36.688596, 11.930114)"><g><path d="M 5.03125 -7.765625 C 5.6875 -7.765625 6.285156 -7.601562 6.828125 -7.28125 C 7.367188 -6.96875 7.796875 -6.539062 8.109375 -6 C 8.429688 -5.457031 8.59375 -4.859375 8.59375 -4.203125 L 6.90625 -4.203125 C 6.90625 -4.585938 6.820312 -4.9375 6.65625 -5.25 C 6.488281 -5.570312 6.257812 -5.828125 5.96875 -6.015625 C 5.6875 -6.203125 5.375 -6.296875 5.03125 -6.296875 C 4.507812 -6.296875 4.03125 -6.179688 3.59375 -5.953125 C 3.164062 -5.722656 2.828125 -5.414062 2.578125 -5.03125 C 2.328125 -4.65625 2.203125 -4.238281 2.203125 -3.78125 L 2.203125 0 L 0.515625 0 L 0.515625 -7.546875 L 2.203125 -7.546875 L 2.203125 -7.4375 C 2.203125 -7.207031 2.148438 -6.984375 2.046875 -6.765625 L 1.671875 -5.90625 L 1.875 -5.8125 L 2.171875 -6.484375 C 2.347656 -6.890625 2.640625 -7.175781 3.046875 -7.34375 C 3.335938 -7.476562 3.648438 -7.582031 3.984375 -7.65625 C 4.316406 -7.726562 4.664062 -7.765625 5.03125 -7.765625 Z M 5.03125 -7.765625 "/></g></g></g><g fill="#b08968" fill-opacity="1"><g transform="translate(45.000447, 11.930114)"><g><path d="M 7.578125 -7.5625 L 9.234375 -7.5625 L 4.203125 2.53125 L 2.875 1.875 L 3.75 0.140625 L -0.09375 -7.5625 L 1.546875 -7.5625 L 4.28125 -2.09375 C 4.394531 -1.863281 4.453125 -1.609375 4.453125 -1.328125 L 4.453125 -1.0625 L 4.6875 -1.0625 L 4.6875 -1.328125 C 4.6875 -1.609375 4.738281 -1.863281 4.84375 -2.09375 Z M 7.578125 -7.5625 "/></g></g></g></g></g></g></g></g></g></svg>